<svg xmlns="http://www.w3.org/2000/svg" xmlns:xlink="http://www.w3.org/1999/xlink" width="940" zoomAndPan="magnify" viewBox="0 0 705 591.000005" height="788" preserveAspectRatio="xMidYMid meet" version="1.0"><defs><g><g id="id1"/></g><clipPath id="id2"><path d="M 0.59375 0 L 704.402344 0 L 704.402344 590 L 0.59375 590 Z M 0.59375 0 " clip-rule="nonzero"/></clipPath><clipPath id="id3"><path d="M 0.59375 0 L 234.242188 0 L 234.242188 228.894531 L 0.59375 228.894531 Z M 0.59375 0 " clip-rule="nonzero"/></clipPath><clipPath id="id4"><path d="M 0.59375 0 L 165 0 L 165 195 L 0.59375 195 Z M 0.59375 0 " clip-rule="nonzero"/></clipPath><clipPath id="id5"><path d="M 456.726562 375.9375 L 704.402344 375.9375 L 704.402344 590 L 456.726562 590 Z M 456.726562 375.9375 " clip-rule="nonzero"/></clipPath><clipPath id="id6"><path d="M 488 409 L 653 409 L 653 590 L 488 590 Z M 488 409 " clip-rule="nonzero"/></clipPath></defs><g clip-path="url(#id2)"><path fill="rgb(100%, 100%, 100%)" d="M 0.59375 0 L 704.40625 0 L 704.40625 597.488281 L 0.59375 597.488281 Z M 0.59375 0 " fill-opacity="1" fill-rule="nonzero"/><path fill="rgb(84.709167%, 98.039246%, 98.039246%)" d="M 0.59375 0 L 704.40625 0 L 704.40625 590 L 0.59375 590 Z M 0.59375 0 " fill-opacity="1" fill-rule="nonzero"/><path fill="rgb(100%, 100%, 100%)" d="M 0.59375 0 L 704.40625 0 L 704.40625 590 L 0.59375 590 Z M 0.59375 0 " fill-opacity="1" fill-rule="nonzero"/><path fill="rgb(84.709167%, 98.039246%, 98.039246%)" d="M 0.59375 0 L 704.40625 0 L 704.40625 590 L 0.59375 590 Z M 0.59375 0 " fill-opacity="1" fill-rule="nonzero"/></g><g clip-path="url(#id3)"><path fill="rgb(64.709473%, 78.819275%, 78.819275%)" d="M 234.242188 154.226562 C 234.242188 195.3125 199.394531 228.695312 156.40625 228.695312 C 134.027344 228.695312 113.78125 219.671875 99.621094 205.144531 C 93.242188 198.613281 84.4375 195.167969 75.339844 195.605469 C 73.359375 195.679688 71.378906 195.753906 69.398438 195.753906 C 11.957031 195.753906 -34.554688 151.21875 -34.554688 96.414062 C -34.554688 50.925781 -2.496094 12.554688 41.152344 0.816406 L 74.386719 -9.164062 L 89.9375 -25.085938 C 100.28125 -36.824219 115.984375 -42.691406 131.316406 -39.023438 C 153.542969 -33.667969 166.601562 -10.191406 160.367188 13.433594 C 159.265625 17.542969 157.726562 21.359375 155.746094 24.804688 C 152.664062 30.234375 152.882812 36.910156 156.40625 42.046875 C 162.273438 50.632812 166.820312 60.097656 169.757812 70.292969 C 171.589844 76.824219 176.578125 82.105469 183.035156 84.308594 C 212.820312 94.578125 234.242188 121.945312 234.242188 154.226562 Z M 234.242188 154.226562 " fill-opacity="1" fill-rule="nonzero"/></g><g clip-path="url(#id4)"><path fill="rgb(54.119873%, 64.309692%, 64.309692%)" d="M 47.066406 119.050781 C 52.390625 102.167969 45.257812 84.875 31.144531 80.433594 C 17.035156 75.996094 1.269531 86.113281 -4.054688 102.996094 C -9.378906 119.875 -2.246094 137.171875 11.863281 141.609375 C 25.976562 146.050781 41.742188 135.929688 47.066406 119.050781 Z M 140.003906 129.476562 C 138.605469 130.304688 137.210938 131.027344 135.765625 131.699219 C 126.046875 136.085938 119.066406 145.121094 117.878906 155.703125 C 117.464844 159.214844 116.640625 162.777344 115.398438 166.234375 C 107.644531 187.660156 86.089844 199.324219 67.277344 192.253906 C 48.460938 185.179688 39.519531 162.105469 47.273438 140.679688 C 48.875 136.292969 51.046875 132.316406 53.628906 128.859375 C 60.917969 119.101562 61.898438 106.042969 55.75 95.5625 C 55.59375 95.25 55.386719 94.941406 55.230469 94.632812 C 35.175781 59.578125 40.757812 18.28125 67.585938 2.484375 C 94.414062 -13.3125 132.402344 2.226562 152.355469 37.328125 C 172.308594 72.433594 166.828125 113.628906 140.003906 129.476562 Z M 140.003906 129.476562 " fill-opacity="1" fill-rule="nonzero"/></g><g clip-path="url(#id5)"><path fill="rgb(64.709473%, 78.819275%, 78.819275%)" d="M 456.574219 447.855469 C 456.574219 408.128906 490.257812 375.847656 531.808594 375.847656 C 553.4375 375.847656 573.007812 384.574219 586.691406 398.621094 C 592.859375 404.933594 601.371094 408.269531 610.164062 407.84375 C 612.078125 407.773438 613.992188 407.703125 615.90625 407.703125 C 671.429688 407.703125 716.382812 450.765625 716.382812 503.757812 C 716.382812 547.742188 685.398438 584.847656 643.207031 596.199219 L 611.085938 605.847656 L 596.050781 621.242188 C 586.054688 632.59375 570.878906 638.265625 556.058594 634.71875 C 534.574219 629.542969 521.953125 606.839844 527.980469 583.996094 C 529.042969 580.023438 530.53125 576.335938 532.445312 573 C 535.425781 567.75 535.210938 561.292969 531.808594 556.328125 C 526.136719 548.027344 521.738281 538.875 518.902344 529.015625 C 517.128906 522.699219 512.308594 517.59375 506.070312 515.464844 C 477.28125 505.53125 456.574219 479.070312 456.574219 447.855469 Z M 456.574219 447.855469 " fill-opacity="1" fill-rule="nonzero"/></g><g clip-path="url(#id6)"><path fill="rgb(54.119873%, 64.309692%, 64.309692%)" d="M 601.753906 482.066406 C 596.625 498.351562 603.496094 515.039062 617.082031 519.320312 C 630.671875 523.605469 645.855469 513.84375 650.980469 497.554688 C 656.109375 481.269531 649.238281 464.582031 635.648438 460.300781 C 622.0625 456.015625 606.878906 465.78125 601.753906 482.066406 Z M 512.253906 472.003906 C 513.597656 471.207031 514.941406 470.511719 516.335938 469.863281 C 525.695312 465.628906 532.414062 456.914062 533.558594 446.703125 C 533.957031 443.316406 534.753906 439.878906 535.949219 436.542969 C 543.414062 415.875 564.171875 404.617188 582.289062 411.441406 C 600.410156 418.265625 609.019531 440.527344 601.554688 461.195312 C 600.011719 465.429688 597.921875 469.265625 595.429688 472.601562 C 588.414062 482.015625 587.46875 494.617188 593.390625 504.726562 C 593.539062 505.027344 593.738281 505.324219 593.886719 505.625 C 613.203125 539.441406 607.824219 579.289062 581.992188 594.527344 C 556.15625 609.769531 519.574219 594.777344 500.359375 560.910156 C 481.144531 527.042969 486.421875 487.296875 512.253906 472.003906 Z M 512.253906 472.003906 " fill-opacity="1" fill-rule="nonzero"/></g><path fill="rgb(52.938843%, 71.759033%, 78.42865%)" d="M 609.425781 275.105469 C 607.238281 273.6875 614.570312 272.15625 617.851562 269.316406 C 621.132812 266.367188 597.828125 268.550781 594.875 265.710938 C 591.921875 262.761719 610.957031 264.292969 616.320312 263.527344 C 621.679688 262.761719 611.613281 254.023438 606.582031 249.652344 C 601.441406 245.28125 607.347656 243.863281 609.535156 238.507812 C 611.175781 234.578125 602.316406 236.214844 597.71875 237.527344 C 601.878906 235.667969 608.660156 231.84375 604.503906 230.753906 C 598.703125 229.332031 611.832031 225.617188 615.445312 222.777344 C 619.054688 219.9375 611.832031 219.171875 615.117188 214.039062 C 618.398438 208.90625 594.328125 214.804688 601.660156 212.617188 C 608.988281 210.433594 618.398438 198.746094 614.023438 200.929688 C 609.644531 203.113281 603.847656 200.164062 607.457031 197.324219 C 611.066406 194.375 603.082031 188.585938 594.328125 192.953125 C 585.574219 197.324219 400.339844 218.410156 396.617188 216.222656 C 393.007812 214.039062 406.792969 203.878906 391.476562 203.878906 C 376.160156 203.878906 243.988281 224.527344 243.988281 224.527344 L 238.1875 224.527344 L 90.042969 285.703125 C 80.304688 289.746094 102.40625 288.980469 95.1875 293.351562 C 87.964844 297.71875 94.421875 305.695312 101.75 302.089844 C 109.082031 298.484375 91.574219 315.964844 98.796875 315.199219 C 106.128906 314.433594 86.433594 334.863281 90.042969 339.234375 C 93.65625 343.601562 108.316406 331.914062 100.984375 353.761719 C 93.65625 375.609375 105.363281 390.90625 114.878906 380.746094 C 124.398438 370.585938 160.832031 366.214844 173.199219 364.03125 C 185.5625 361.847656 218.386719 358.242188 189.28125 358.242188 C 160.175781 358.242188 119.257812 376.375 165.976562 356.710938 C 212.695312 337.046875 351.210938 376.375 351.976562 372.007812 C 352.742188 367.636719 424.957031 370.585938 438.742188 369.054688 C 452.527344 367.527344 472.332031 365.453125 465.765625 362.5 C 459.203125 359.550781 497.824219 358.132812 503.734375 356.054688 C 509.53125 353.980469 519.816406 342.511719 512.488281 345.679688 C 505.15625 348.847656 432.289062 363.15625 397.929688 351.46875 C 381.628906 345.898438 425.832031 343.710938 477.035156 342.839844 C 462.8125 344.695312 408.761719 347.535156 416.09375 348.628906 C 423.207031 349.71875 469.925781 347.316406 474.957031 345.679688 C 477.695312 344.804688 482.617188 343.382812 483.820312 342.730469 C 498.261719 342.511719 513.144531 342.402344 527.257812 342.402344 C 534.808594 342.945312 544.652344 343.601562 544.214844 345.570312 C 543.339844 349.175781 556.472656 348.738281 556.800781 345.570312 C 556.910156 344.476562 553.296875 343.273438 548.15625 342.402344 C 577.804688 342.402344 600.234375 342.730469 601.550781 342.730469 C 605.925781 342.730469 609.535156 338.359375 608.878906 333.988281 C 608.113281 329.621094 612.488281 323.066406 611.832031 317.929688 C 611.066406 312.796875 591.375 312.140625 602.316406 310.609375 C 613.257812 309.191406 609.644531 304.820312 614.023438 303.292969 C 618.398438 301.761719 611.832031 295.316406 616.210938 292.367188 C 620.585938 289.417969 611.832031 287.996094 618.289062 285.484375 C 624.636719 283.191406 611.613281 276.636719 609.425781 275.105469 Z M 609.425781 275.105469 " fill-opacity="1" fill-rule="nonzero"/><path fill="rgb(52.938843%, 71.759033%, 78.42865%)" d="M 130.199219 261.996094 C 130.199219 261.996094 241.035156 213.929688 274.625 209.230469 C 308.214844 204.535156 290.707031 196.449219 265.871094 205.191406 C 241.035156 213.929688 126.585938 259.046875 118.492188 261.996094 C 110.503906 264.945312 118.710938 266.914062 130.199219 261.996094 Z M 130.199219 261.996094 " fill-opacity="1" fill-rule="nonzero"/><path fill="rgb(52.938843%, 71.759033%, 78.42865%)" d="M 99.5625 276.636719 C 106.457031 276.308594 113.785156 270.410156 115.316406 268.660156 C 118.164062 265.273438 99.890625 270.410156 91.902344 272.59375 C 83.917969 274.777344 92.667969 276.964844 99.5625 276.636719 Z M 99.5625 276.636719 " fill-opacity="1" fill-rule="nonzero"/><path fill="rgb(52.938843%, 71.759033%, 78.42865%)" d="M 111.269531 388.71875 C 106.238281 396.039062 106.128906 401.066406 113.128906 399.644531 C 120.023438 398.226562 122.976562 382.492188 130.308594 379.652344 C 137.527344 376.703125 115.753906 382.164062 111.269531 388.71875 Z M 111.269531 388.71875 " fill-opacity="1" fill-rule="nonzero"/><path fill="rgb(52.938843%, 71.759033%, 78.42865%)" d="M 91.027344 347.972656 C 87.527344 350.15625 85.339844 351.796875 86.105469 359.769531 C 86.871094 367.746094 92.667969 357.804688 95.40625 353.761719 C 98.140625 349.71875 94.09375 346.113281 91.027344 347.972656 Z M 91.027344 347.972656 " fill-opacity="1" fill-rule="nonzero"/><path fill="rgb(52.938843%, 71.759033%, 78.42865%)" d="M 85.996094 329.945312 C 83.371094 332.132812 81.507812 338.46875 84.792969 335.628906 C 88.621094 332.460938 88.621094 327.761719 85.996094 329.945312 Z M 85.996094 329.945312 " fill-opacity="1" fill-rule="nonzero"/><path fill="rgb(52.938843%, 71.759033%, 78.42865%)" d="M 413.578125 205.953125 C 417.1875 204.535156 423.753906 200.820312 429.660156 199.398438 C 435.460938 197.980469 424.191406 196.121094 418.171875 199.398438 C 412.15625 202.675781 405.808594 199.289062 406.683594 201.367188 C 407.777344 203.988281 409.96875 207.375 413.578125 205.953125 Z M 413.578125 205.953125 " fill-opacity="1" fill-rule="nonzero"/><path fill="rgb(52.938843%, 71.759033%, 78.42865%)" d="M 535.574219 355.839844 C 527.914062 353.871094 485.351562 360.972656 478.132812 362.9375 C 476.488281 363.375 475.722656 366.761719 481.414062 364.90625 C 487.101562 363.046875 524.632812 360.316406 531.742188 361.628906 C 538.855469 362.9375 543.230469 357.804688 535.574219 355.839844 Z M 535.574219 355.839844 " fill-opacity="1" fill-rule="nonzero"/><path fill="rgb(52.938843%, 71.759033%, 78.42865%)" d="M 320.25 370.148438 C 313.355469 367.964844 253.398438 356.820312 245.738281 355.621094 C 242.238281 355.074219 248.035156 358.132812 257.335938 359.441406 C 266.636719 360.753906 303.835938 368.292969 307.117188 371.132812 C 310.402344 373.972656 314.777344 375.066406 318.058594 375.285156 C 321.34375 375.503906 314.777344 373.097656 314.777344 373.097656 L 307.445312 368.949219 L 321.234375 373.863281 L 324.953125 372.550781 C 324.84375 372.660156 327.140625 372.332031 320.25 370.148438 Z M 320.25 370.148438 " fill-opacity="1" fill-rule="nonzero"/><g fill="rgb(0%, 0%, 0%)" fill-opacity="1"><g transform="translate(208.103243, 261.390523)"><g><path d="M 27.1875 -47.71875 C 28.96875 -47.71875 30.867188 -47.425781 32.890625 -46.84375 C 34.910156 -46.269531 36.765625 -45.472656 38.453125 -44.453125 L 38.515625 -44.453125 L 38.453125 -47.25 L 43.578125 -47.25 L 42.78125 -31.71875 L 38.390625 -31.71875 C 37.984375 -35.445312 36.878906 -38.289062 35.078125 -40.25 C 33.285156 -42.207031 30.832031 -43.1875 27.71875 -43.1875 C 24.5625 -43.1875 21.863281 -42.160156 19.625 -40.109375 C 17.382812 -38.066406 15.695312 -35.4375 14.5625 -32.21875 C 13.425781 -29 12.859375 -25.613281 12.859375 -22.0625 C 12.859375 -16.6875 14.035156 -12.332031 16.390625 -9 C 18.742188 -5.664062 22.03125 -4 26.25 -4 C 29.050781 -4 31.863281 -4.6875 34.6875 -6.0625 C 37.507812 -7.4375 39.984375 -9.503906 42.109375 -12.265625 L 44.71875 -9.59375 C 41.601562 -5.550781 38.257812 -2.765625 34.6875 -1.234375 C 31.113281 0.296875 27.59375 1.0625 24.125 1.0625 C 19.8125 1.0625 16.007812 0.0859375 12.71875 -1.859375 C 9.4375 -3.816406 6.90625 -6.484375 5.125 -9.859375 C 3.351562 -13.234375 2.46875 -17.007812 2.46875 -21.1875 C 2.46875 -25.539062 3.429688 -29.757812 5.359375 -33.84375 C 7.296875 -37.9375 10.140625 -41.269531 13.890625 -43.84375 C 17.648438 -46.425781 22.082031 -47.71875 27.1875 -47.71875 Z M 27.1875 -47.71875 "/></g></g></g><g fill="rgb(0%, 0%, 0%)" fill-opacity="1"><g transform="translate(254.078815, 261.390523)"><g><path d="M 27.0625 -47.71875 C 31.945312 -47.71875 36.007812 -46.59375 39.25 -44.34375 C 42.488281 -42.101562 44.863281 -39.238281 46.375 -35.75 C 47.882812 -32.257812 48.640625 -28.582031 48.640625 -24.71875 C 48.640625 -20.71875 47.707031 -16.726562 45.84375 -12.75 C 43.976562 -8.78125 41.210938 -5.484375 37.546875 -2.859375 C 33.878906 -0.242188 29.472656 1.0625 24.328125 1.0625 C 19.265625 1.0625 15.109375 0 11.859375 -2.125 C 8.617188 -4.257812 6.265625 -7.023438 4.796875 -10.421875 C 3.328125 -13.828125 2.59375 -17.503906 2.59375 -21.453125 C 2.59375 -22.296875 2.617188 -22.921875 2.671875 -23.328125 C 2.847656 -27.273438 3.898438 -31.113281 5.828125 -34.84375 C 7.765625 -38.582031 10.539062 -41.660156 14.15625 -44.078125 C 17.78125 -46.503906 22.082031 -47.71875 27.0625 -47.71875 Z M 26.25 -43.1875 C 23.101562 -43.1875 20.53125 -42.097656 18.53125 -39.921875 C 16.53125 -37.742188 15.082031 -35.054688 14.1875 -31.859375 C 13.300781 -28.660156 12.859375 -25.484375 12.859375 -22.328125 C 12.859375 -19.304688 13.269531 -16.363281 14.09375 -13.5 C 14.914062 -10.632812 16.25 -8.242188 18.09375 -6.328125 C 19.9375 -4.421875 22.300781 -3.46875 25.1875 -3.46875 C 28.070312 -3.46875 30.476562 -4.398438 32.40625 -6.265625 C 34.34375 -8.128906 35.789062 -10.492188 36.75 -13.359375 C 37.707031 -16.222656 38.253906 -19.164062 38.390625 -22.1875 C 38.429688 -22.71875 38.453125 -23.519531 38.453125 -24.59375 C 38.453125 -30.28125 37.429688 -34.800781 35.390625 -38.15625 C 33.347656 -41.507812 30.300781 -43.1875 26.25 -43.1875 Z M 26.25 -43.1875 "/></g></g></g><g fill="rgb(0%, 0%, 0%)" fill-opacity="1"><g transform="translate(304.851841, 261.390523)"><g><path d="M 62.109375 -42.25 C 60.910156 -42.207031 59.976562 -42.0625 59.3125 -41.8125 C 58.644531 -41.570312 58.097656 -41.050781 57.671875 -40.25 C 57.253906 -39.445312 57.046875 -38.179688 57.046875 -36.453125 L 56.71875 -10.921875 C 56.71875 -8.617188 56.515625 -6.625 56.109375 -4.9375 C 57.578125 -5.0625 59.265625 -5.125 61.171875 -5.125 L 60.90625 0 L 42.25 0 L 42.515625 -4.390625 C 43.710938 -4.441406 44.644531 -4.585938 45.3125 -4.828125 C 45.976562 -5.078125 46.507812 -5.597656 46.90625 -6.390625 C 47.3125 -7.191406 47.515625 -8.460938 47.515625 -10.203125 L 47.71875 -24.328125 C 47.757812 -25.390625 47.78125 -29.320312 47.78125 -36.125 L 47.71875 -36.125 L 32.453125 0.671875 L 26.453125 0.671875 L 18.328125 -21.265625 C 17.742188 -22.722656 17.050781 -24.875 16.25 -27.71875 C 15.457031 -30.5625 14.835938 -33.207031 14.390625 -35.65625 L 14.328125 -35.65625 L 14.265625 -32.78125 C 14.035156 -26.875 13.898438 -23.609375 13.859375 -22.984375 L 13.125 -10.921875 C 12.988281 -8.390625 12.789062 -6.394531 12.53125 -4.9375 C 14 -5.0625 15.6875 -5.125 17.59375 -5.125 L 17.328125 0 L 2.125 0 L 2.40625 -4.390625 C 3.601562 -4.441406 4.507812 -4.585938 5.125 -4.828125 C 5.75 -5.078125 6.25 -5.597656 6.625 -6.390625 C 7.007812 -7.191406 7.265625 -8.460938 7.390625 -10.203125 L 9.125 -35.71875 C 9.394531 -39.007812 9.597656 -41.007812 9.734375 -41.71875 L 4.671875 -41.515625 L 5 -46.640625 L 19.265625 -46.640625 L 28.390625 -20.796875 C 29.140625 -18.523438 29.9375 -15.898438 30.78125 -12.921875 L 31.59375 -10 L 31.65625 -10 L 33.453125 -14.390625 C 33.847656 -15.460938 34.203125 -16.382812 34.515625 -17.15625 C 34.828125 -17.9375 35.09375 -18.59375 35.3125 -19.125 L 46.84375 -46.640625 L 62.375 -46.640625 Z M 62.109375 -42.25 "/></g></g></g><g fill="rgb(0%, 0%, 0%)" fill-opacity="1"><g transform="translate(369.484165, 261.390523)"><g><path d="M 23.53125 -42.25 C 22.320312 -42.207031 21.394531 -42.0625 20.75 -41.8125 C 20.113281 -41.570312 19.59375 -41.050781 19.1875 -40.25 C 18.789062 -39.445312 18.546875 -38.179688 18.453125 -36.453125 L 17.125 -10.921875 C 16.945312 -8.035156 16.769531 -6.039062 16.59375 -4.9375 C 17.96875 -5.0625 19.632812 -5.125 21.59375 -5.125 L 21.328125 0 L 2.328125 0 L 2.59375 -4.390625 C 3.75 -4.441406 4.648438 -4.585938 5.296875 -4.828125 C 5.941406 -5.078125 6.460938 -5.597656 6.859375 -6.390625 C 7.265625 -7.191406 7.507812 -8.460938 7.59375 -10.203125 L 8.9375 -35.71875 C 9.0625 -38.25 9.257812 -40.25 9.53125 -41.71875 L 4.53125 -41.515625 L 4.796875 -46.640625 L 23.71875 -46.640625 Z M 23.53125 -42.25 "/></g></g></g><g fill="rgb(0%, 0%, 0%)" fill-opacity="1"><g transform="translate(395.070572, 261.390523)"><g><path d="M 50.453125 -42.25 C 49.242188 -42.207031 48.316406 -42.0625 47.671875 -41.8125 C 47.035156 -41.570312 46.515625 -41.050781 46.109375 -40.25 C 45.710938 -39.445312 45.46875 -38.179688 45.375 -36.453125 L 43.390625 0.671875 L 37.71875 0.671875 L 17.859375 -26.71875 C 16.617188 -28.457031 15.488281 -30.125 14.46875 -31.71875 L 14.390625 -31.71875 L 13.46875 -10.921875 C 13.332031 -8.390625 13.128906 -6.394531 12.859375 -4.9375 C 14.328125 -5.0625 16.015625 -5.125 17.921875 -5.125 L 17.59375 0 L 2.40625 0 L 2.671875 -4.390625 C 3.867188 -4.441406 4.785156 -4.585938 5.421875 -4.828125 C 6.066406 -5.078125 6.585938 -5.597656 6.984375 -6.390625 C 7.390625 -7.191406 7.640625 -8.460938 7.734375 -10.203125 L 8.859375 -35.71875 C 8.992188 -38.25 9.195312 -40.25 9.46875 -41.71875 L 4.390625 -41.515625 L 4.734375 -46.640625 L 15.1875 -46.640625 L 34.1875 -20.859375 C 35.300781 -19.304688 36.742188 -17.175781 38.515625 -14.46875 L 38.578125 -14.46875 L 39.65625 -35.71875 C 39.78125 -38.25 39.976562 -40.25 40.25 -41.71875 L 35.1875 -41.515625 L 35.515625 -46.640625 L 50.640625 -46.640625 Z M 50.453125 -42.25 "/></g></g></g><g fill="rgb(0%, 0%, 0%)" fill-opacity="1"><g transform="translate(446.509914, 261.390523)"><g><path d="M 27.0625 -47.71875 C 28.96875 -47.71875 31.117188 -47.425781 33.515625 -46.84375 C 35.921875 -46.269531 37.921875 -45.472656 39.515625 -44.453125 L 39.578125 -44.453125 L 39.515625 -47.25 L 44.65625 -47.25 L 43.84375 -31.71875 L 39.453125 -31.71875 C 39.046875 -35.320312 37.785156 -38.078125 35.671875 -39.984375 C 33.566406 -41.890625 30.914062 -42.867188 27.71875 -42.921875 C 24.5625 -42.921875 21.863281 -41.921875 19.625 -39.921875 C 17.382812 -37.921875 15.695312 -35.320312 14.5625 -32.125 C 13.425781 -28.925781 12.859375 -25.546875 12.859375 -21.984375 C 12.859375 -16.609375 14 -12.300781 16.28125 -9.0625 C 18.570312 -5.820312 21.804688 -4.203125 25.984375 -4.203125 C 27.410156 -4.203125 29.085938 -4.367188 31.015625 -4.703125 C 32.953125 -5.035156 34.5 -5.46875 35.65625 -6 L 35.984375 -12.1875 C 36.160156 -15.082031 36.335938 -17.082031 36.515625 -18.1875 C 35.359375 -18.101562 34.269531 -18.0625 33.25 -18.0625 L 31.515625 -18 L 31.78125 -23.125 L 49.3125 -23.125 L 49.109375 -18.71875 C 48.003906 -18.675781 47.140625 -18.519531 46.515625 -18.25 C 45.890625 -17.988281 45.398438 -17.445312 45.046875 -16.625 C 44.691406 -15.800781 44.46875 -14.566406 44.375 -12.921875 L 43.84375 -2.265625 L 42.1875 -2.265625 C 41.164062 -2.265625 40.164062 -2.148438 39.1875 -1.921875 C 38.207031 -1.703125 36.875 -1.347656 35.1875 -0.859375 C 32.914062 -0.242188 30.992188 0.226562 29.421875 0.5625 C 27.847656 0.894531 26.0625 1.0625 24.0625 1.0625 C 19.570312 1.0625 15.703125 0.109375 12.453125 -1.796875 C 9.210938 -3.710938 6.75 -6.332031 5.0625 -9.65625 C 3.375 -12.988281 2.53125 -16.742188 2.53125 -20.921875 C 2.53125 -25.316406 3.472656 -29.566406 5.359375 -33.671875 C 7.253906 -37.785156 10.054688 -41.15625 13.765625 -43.78125 C 17.472656 -46.40625 21.90625 -47.71875 27.0625 -47.71875 Z M 27.0625 -47.71875 "/></g></g></g><g fill="rgb(0%, 0%, 0%)" fill-opacity="1"><g transform="translate(256.015276, 331.862948)"><g><path d="M 19.984375 -47.71875 C 21.898438 -47.71875 23.878906 -47.4375 25.921875 -46.875 C 27.960938 -46.320312 29.648438 -45.535156 30.984375 -44.515625 L 31.046875 -44.515625 L 30.984375 -47.25 L 36.125 -47.25 L 35.3125 -31.71875 L 30.921875 -31.71875 C 30.523438 -35.363281 29.390625 -38.140625 27.515625 -40.046875 C 25.648438 -41.960938 23.1875 -42.921875 20.125 -42.921875 C 18.082031 -42.921875 16.304688 -42.34375 14.796875 -41.1875 C 13.285156 -40.03125 12.53125 -38.585938 12.53125 -36.859375 C 12.53125 -34.984375 13.316406 -33.378906 14.890625 -32.046875 C 16.472656 -30.722656 19.109375 -29.304688 22.796875 -27.796875 C 25.640625 -26.585938 28.09375 -25.363281 30.15625 -24.125 C 32.21875 -22.882812 33.945312 -21.285156 35.34375 -19.328125 C 36.75 -17.367188 37.382812 -15.054688 37.25 -12.390625 C 37.113281 -9.773438 36.28125 -7.441406 34.75 -5.390625 C 33.21875 -3.347656 31.117188 -1.757812 28.453125 -0.625 C 25.785156 0.5 22.765625 1.0625 19.390625 1.0625 C 17.617188 1.0625 15.695312 0.769531 13.625 0.1875 C 11.5625 -0.382812 9.707031 -1.179688 8.0625 -2.203125 L 8 -2.203125 L 8.0625 0.59375 L 2.9375 0.59375 L 3.734375 -15 L 8.125 -15 C 8.53125 -11.351562 9.785156 -8.5625 11.890625 -6.625 C 14.003906 -4.695312 16.660156 -3.734375 19.859375 -3.734375 C 22.253906 -3.734375 24.238281 -4.375 25.8125 -5.65625 C 27.394531 -6.945312 28.1875 -8.503906 28.1875 -10.328125 C 28.1875 -11.703125 27.707031 -12.878906 26.75 -13.859375 C 25.800781 -14.835938 24.691406 -15.632812 23.421875 -16.25 C 22.160156 -16.875 20.351562 -17.675781 18 -18.65625 C 13.375 -20.519531 9.835938 -22.617188 7.390625 -24.953125 C 4.953125 -27.285156 3.734375 -30.316406 3.734375 -34.046875 C 3.734375 -36.179688 4.253906 -38.28125 5.296875 -40.34375 C 6.335938 -42.414062 8.078125 -44.160156 10.515625 -45.578125 C 12.960938 -47.003906 16.117188 -47.71875 19.984375 -47.71875 Z M 19.984375 -47.71875 "/></g></g></g><g fill="rgb(0%, 0%, 0%)" fill-opacity="1"><g transform="translate(295.994034, 331.862948)"><g><path d="M 27.0625 -47.71875 C 31.945312 -47.71875 36.007812 -46.59375 39.25 -44.34375 C 42.488281 -42.101562 44.863281 -39.238281 46.375 -35.75 C 47.882812 -32.257812 48.640625 -28.582031 48.640625 -24.71875 C 48.640625 -20.71875 47.707031 -16.726562 45.84375 -12.75 C 43.976562 -8.78125 41.210938 -5.484375 37.546875 -2.859375 C 33.878906 -0.242188 29.472656 1.0625 24.328125 1.0625 C 19.265625 1.0625 15.109375 0 11.859375 -2.125 C 8.617188 -4.257812 6.265625 -7.023438 4.796875 -10.421875 C 3.328125 -13.828125 2.59375 -17.503906 2.59375 -21.453125 C 2.59375 -22.296875 2.617188 -22.921875 2.671875 -23.328125 C 2.847656 -27.273438 3.898438 -31.113281 5.828125 -34.84375 C 7.765625 -38.582031 10.539062 -41.660156 14.15625 -44.078125 C 17.78125 -46.503906 22.082031 -47.71875 27.0625 -47.71875 Z M 26.25 -43.1875 C 23.101562 -43.1875 20.53125 -42.097656 18.53125 -39.921875 C 16.53125 -37.742188 15.082031 -35.054688 14.1875 -31.859375 C 13.300781 -28.660156 12.859375 -25.484375 12.859375 -22.328125 C 12.859375 -19.304688 13.269531 -16.363281 14.09375 -13.5 C 14.914062 -10.632812 16.25 -8.242188 18.09375 -6.328125 C 19.9375 -4.421875 22.300781 -3.46875 25.1875 -3.46875 C 28.070312 -3.46875 30.476562 -4.398438 32.40625 -6.265625 C 34.34375 -8.128906 35.789062 -10.492188 36.75 -13.359375 C 37.707031 -16.222656 38.253906 -19.164062 38.390625 -22.1875 C 38.429688 -22.71875 38.453125 -23.519531 38.453125 -24.59375 C 38.453125 -30.28125 37.429688 -34.800781 35.390625 -38.15625 C 33.347656 -41.507812 30.300781 -43.1875 26.25 -43.1875 Z M 26.25 -43.1875 "/></g></g></g><g fill="rgb(0%, 0%, 0%)" fill-opacity="1"><g transform="translate(346.767059, 331.862948)"><g><path d="M 27.0625 -47.71875 C 31.945312 -47.71875 36.007812 -46.59375 39.25 -44.34375 C 42.488281 -42.101562 44.863281 -39.238281 46.375 -35.75 C 47.882812 -32.257812 48.640625 -28.582031 48.640625 -24.71875 C 48.640625 -20.71875 47.707031 -16.726562 45.84375 -12.75 C 43.976562 -8.78125 41.210938 -5.484375 37.546875 -2.859375 C 33.878906 -0.242188 29.472656 1.0625 24.328125 1.0625 C 19.265625 1.0625 15.109375 0 11.859375 -2.125 C 8.617188 -4.257812 6.265625 -7.023438 4.796875 -10.421875 C 3.328125 -13.828125 2.59375 -17.503906 2.59375 -21.453125 C 2.59375 -22.296875 2.617188 -22.921875 2.671875 -23.328125 C 2.847656 -27.273438 3.898438 -31.113281 5.828125 -34.84375 C 7.765625 -38.582031 10.539062 -41.660156 14.15625 -44.078125 C 17.78125 -46.503906 22.082031 -47.71875 27.0625 -47.71875 Z M 26.25 -43.1875 C 23.101562 -43.1875 20.53125 -42.097656 18.53125 -39.921875 C 16.53125 -37.742188 15.082031 -35.054688 14.1875 -31.859375 C 13.300781 -28.660156 12.859375 -25.484375 12.859375 -22.328125 C 12.859375 -19.304688 13.269531 -16.363281 14.09375 -13.5 C 14.914062 -10.632812 16.25 -8.242188 18.09375 -6.328125 C 19.9375 -4.421875 22.300781 -3.46875 25.1875 -3.46875 C 28.070312 -3.46875 30.476562 -4.398438 32.40625 -6.265625 C 34.34375 -8.128906 35.789062 -10.492188 36.75 -13.359375 C 37.707031 -16.222656 38.253906 -19.164062 38.390625 -22.1875 C 38.429688 -22.71875 38.453125 -23.519531 38.453125 -24.59375 C 38.453125 -30.28125 37.429688 -34.800781 35.390625 -38.15625 C 33.347656 -41.507812 30.300781 -43.1875 26.25 -43.1875 Z M 26.25 -43.1875 "/></g></g></g><g fill="rgb(0%, 0%, 0%)" fill-opacity="1"><g transform="translate(397.540085, 331.862948)"><g><path d="M 50.453125 -42.25 C 49.242188 -42.207031 48.316406 -42.0625 47.671875 -41.8125 C 47.035156 -41.570312 46.515625 -41.050781 46.109375 -40.25 C 45.710938 -39.445312 45.46875 -38.179688 45.375 -36.453125 L 43.390625 0.671875 L 37.71875 0.671875 L 17.859375 -26.71875 C 16.617188 -28.457031 15.488281 -30.125 14.46875 -31.71875 L 14.390625 -31.71875 L 13.46875 -10.921875 C 13.332031 -8.390625 13.128906 -6.394531 12.859375 -4.9375 C 14.328125 -5.0625 16.015625 -5.125 17.921875 -5.125 L 17.59375 0 L 2.40625 0 L 2.671875 -4.390625 C 3.867188 -4.441406 4.785156 -4.585938 5.421875 -4.828125 C 6.066406 -5.078125 6.585938 -5.597656 6.984375 -6.390625 C 7.390625 -7.191406 7.640625 -8.460938 7.734375 -10.203125 L 8.859375 -35.71875 C 8.992188 -38.25 9.195312 -40.25 9.46875 -41.71875 L 4.390625 -41.515625 L 4.734375 -46.640625 L 15.1875 -46.640625 L 34.1875 -20.859375 C 35.300781 -19.304688 36.742188 -17.175781 38.515625 -14.46875 L 38.578125 -14.46875 L 39.65625 -35.71875 C 39.78125 -38.25 39.976562 -40.25 40.25 -41.71875 L 35.1875 -41.515625 L 35.515625 -46.640625 L 50.640625 -46.640625 Z M 50.453125 -42.25 "/></g></g></g><g fill="rgb(0%, 0%, 0%)" fill-opacity="1"><g transform="translate(273.920387, 399.973193)"><g><path d="M 18.984375 -11.195312 C 18.414062 -13.664062 16.910156 -15.753906 15.449219 -17.757812 C 12.496094 -21.820312 9.003906 -25.78125 7.601562 -30.707031 C 6.941406 -33.089844 6.898438 -35.441406 7.292969 -37.867188 C 7.671875 -40.175781 9.046875 -43.800781 11.925781 -42.207031 C 15.300781 -40.351562 16.089844 -36.011719 16.121094 -36.113281 C 16.558594 -33.890625 16.367188 -31.496094 15.652344 -29.566406 C 15.652344 -29.566406 15.667969 -29.566406 15.667969 -29.566406 C 15.535156 -29.332031 15.390625 -29.1875 15.230469 -29.171875 C 14.863281 -29.128906 14.511719 -29.699219 14.265625 -30.574219 C 13.707031 -32.578125 14.015625 -35.296875 14.277344 -35.691406 C 14.277344 -35.691406 13.34375 -35.851562 12.933594 -34.769531 C 12.570312 -33.789062 12.234375 -32.328125 12.773438 -30.3125 C 13.269531 -28.5 14.394531 -27.945312 15.332031 -27.957031 C 16.777344 -27.972656 17.773438 -30.035156 18.0625 -31.378906 C 18.121094 -31.597656 18.152344 -31.800781 18.179688 -31.992188 C 18.457031 -34.066406 18.253906 -36.230469 17.480469 -38.203125 C 17.4375 -38.335938 14.660156 -45.714844 8.476562 -43.128906 C 6.578125 -42.339844 5.144531 -40.058594 4.441406 -38.1875 C 3.667969 -36.085938 3.84375 -33.613281 4.324219 -31.464844 C 5.40625 -26.6875 8.390625 -22.785156 11.269531 -18.925781 C 14.074219 -15.199219 17.390625 -11.078125 15.695312 -6.136719 C 14.382812 -2.292969 9.878906 0.527344 6.195312 -2.25 C 4.003906 -3.917969 2.761719 -6.8125 2.339844 -9.441406 C 1.945312 -11.984375 2.089844 -15.140625 3.859375 -17.1875 C 6.167969 -19.863281 9.148438 -16.761719 9.996094 -14.382812 C 10.449219 -13.109375 10.507812 -11.632812 9.761719 -10.464844 C 9.367188 -9.863281 8.621094 -9.132812 7.820312 -9.28125 C 6.957031 -9.457031 6.429688 -10.433594 6.386719 -11.222656 C 6.359375 -11.792969 4.824219 -11.765625 4.808594 -11.195312 C 4.765625 -9.324219 6.648438 -8.226562 8.359375 -8.34375 C 10.171875 -8.460938 11.664062 -9.792969 12.042969 -11.558594 C 12.890625 -15.507812 8.902344 -19.949219 4.867188 -19.117188 C 0.453125 -18.210938 -0.175781 -11.96875 0.203125 -8.375 C 0.453125 -6.125 1.183594 -3.769531 2.777344 -2.121094 C 4.238281 -0.597656 6.328125 0.21875 8.417969 0.394531 C 12.570312 0.761719 16.75 -1.214844 18.414062 -5.160156 C 19.21875 -7.042969 19.4375 -9.191406 18.984375 -11.195312 Z M 18.984375 -11.195312 "/></g></g></g><g fill="rgb(0%, 0%, 0%)" fill-opacity="1"><g transform="translate(295.123465, 399.973193)"><g><path d="M 3.304688 -32.636719 C 3.449219 -32.621094 3.582031 -32.605469 3.726562 -32.589844 C 4.734375 -32.476562 5.613281 -32.402344 6.386719 -32.359375 C 7.160156 -32.3125 7.660156 -32.386719 7.90625 -32.546875 C 8.097656 -32.707031 8.242188 -32.871094 8.316406 -33.03125 C 8.390625 -33.175781 8.433594 -33.324219 8.449219 -33.46875 C 8.460938 -33.601562 8.449219 -33.730469 8.417969 -33.832031 C 8.375 -33.9375 8.34375 -34.007812 8.300781 -34.082031 C 8.285156 -34.097656 8.273438 -34.113281 8.273438 -34.140625 C 8.257812 -34.140625 8.257812 -34.15625 8.257812 -34.15625 C 8.242188 -34.15625 8.242188 -34.15625 8.242188 -34.171875 C 7.628906 -33.761719 6.765625 -33.554688 5.65625 -33.554688 C 4.953125 -33.542969 4.238281 -33.570312 3.507812 -33.613281 C 3.625 -34.082031 3.769531 -34.625 3.929688 -35.222656 C 4.222656 -36.289062 4.558594 -37.296875 4.941406 -38.246094 C 5.320312 -39.199219 5.699219 -39.839844 6.09375 -40.175781 C 6.152344 -40.21875 6.183594 -40.292969 6.195312 -40.367188 C 6.195312 -40.441406 6.167969 -40.5 6.125 -40.558594 C 5.933594 -40.730469 5.699219 -40.847656 5.421875 -40.90625 C 5.144531 -40.953125 4.851562 -40.9375 4.574219 -40.835938 C 4.152344 -40.660156 3.699219 -40.207031 3.1875 -39.476562 C 2.675781 -38.746094 2.105469 -37.488281 1.460938 -35.703125 C 1.242188 -35.074219 1.050781 -34.449219 0.863281 -33.820312 C 0.425781 -33.832031 0.015625 -33.847656 -0.351562 -33.863281 C -1.097656 -33.863281 -1.609375 -33.746094 -1.871094 -33.496094 C -1.945312 -33.394531 -2.003906 -33.265625 -2.015625 -33.132812 C -2.046875 -32.984375 -2.0625 -32.855469 -2.046875 -32.753906 C -2.03125 -32.648438 -2.015625 -32.589844 -1.972656 -32.605469 C -1.445312 -32.824219 -0.65625 -32.914062 0.410156 -32.871094 C 0.46875 -32.871094 0.539062 -32.871094 0.597656 -32.855469 C 0.191406 -31.261719 -0.132812 -29.625 -0.335938 -27.957031 C -0.6875 -25.253906 -0.832031 -22.609375 -0.773438 -20.007812 C -0.773438 -19.144531 -0.714844 -18.078125 -0.597656 -16.777344 C -0.496094 -15.476562 -0.261719 -14.175781 0.101562 -12.90625 C 0.46875 -11.617188 1.023438 -10.582031 1.769531 -9.777344 C 2.515625 -8.972656 3.535156 -8.652344 4.808594 -8.796875 C 5.496094 -8.914062 6.066406 -9.410156 6.546875 -10.273438 C 7.03125 -11.136719 7.4375 -12.21875 7.789062 -13.546875 C 8.140625 -14.863281 8.476562 -16.28125 8.785156 -17.785156 C 8.902344 -18.328125 9.015625 -18.867188 9.132812 -19.410156 C 9.179688 -19.613281 9.164062 -19.773438 9.074219 -19.90625 C 8.988281 -20.023438 8.886719 -20.066406 8.753906 -20.050781 C 8.621094 -20.039062 8.519531 -19.90625 8.449219 -19.6875 C 8.375 -19.4375 8.242188 -18.96875 8.082031 -18.269531 C 7.878906 -17.332031 7.613281 -16.265625 7.292969 -15.054688 C 6.972656 -13.839844 6.605469 -12.773438 6.195312 -11.851562 C 5.773438 -10.933594 5.335938 -10.433594 4.851562 -10.363281 C 4.546875 -10.347656 4.324219 -10.421875 4.164062 -10.550781 C 4.003906 -10.683594 3.859375 -10.875 3.710938 -11.121094 C 3.230469 -11.957031 2.878906 -12.847656 2.644531 -13.78125 C 2.164062 -15.855469 1.929688 -17.949219 1.972656 -20.066406 C 2.046875 -23.382812 2.148438 -25.472656 2.308594 -26.367188 C 2.558594 -28.46875 2.894531 -30.558594 3.304688 -32.636719 Z M 3.304688 -32.636719 "/></g></g></g><g fill="rgb(0%, 0%, 0%)" fill-opacity="1"><g transform="translate(303.496562, 399.973193)"><g><path d="M 11.707031 -20.578125 C 11.414062 -18.574219 10.917969 -16.648438 10.113281 -14.804688 C 9.734375 -13.929688 9.308594 -13.082031 8.769531 -12.292969 C 8.609375 -12.027344 8.417969 -11.78125 8.214844 -11.53125 C 8.15625 -11.722656 8.097656 -11.925781 8.082031 -12.128906 C 7.292969 -16.148438 7.660156 -20.359375 7.964844 -24.421875 C 8.007812 -25.066406 6.867188 -25.253906 6.035156 -25.035156 C 5.992188 -25.09375 5.964844 -25.136719 5.917969 -25.183594 C 4.894531 -26.308594 2.878906 -26.203125 1.753906 -25.296875 C 0.277344 -24.128906 -0.394531 -21.761719 -0.863281 -20.039062 C -1.402344 -18.019531 -1.652344 -15.960938 -1.535156 -13.882812 C -1.445312 -12.304688 -1.257812 -10.203125 0.4375 -9.527344 C 2.367188 -8.785156 3.59375 -10.230469 4.3125 -11.824219 C 4.574219 -12.40625 4.808594 -13.023438 5 -13.652344 C 5.144531 -12.058594 5.566406 -10.421875 7 -10.027344 C 9.355469 -9.382812 10.128906 -11.546875 10.757812 -13.3125 C 11.589844 -15.636719 12.058594 -18.109375 12.351562 -20.546875 C 12.363281 -20.679688 11.722656 -20.722656 11.707031 -20.578125 Z M 3.742188 -16.808594 C 3.449219 -15.742188 3.140625 -14.671875 2.761719 -13.636719 C 2.601562 -13.210938 2.175781 -11.96875 1.667969 -11.253906 C 1.492188 -11.722656 1.386719 -12.320312 1.359375 -12.554688 C 1.226562 -13.34375 1.199219 -14.160156 1.199219 -14.964844 C 1.199219 -16.761719 1.460938 -18.574219 1.988281 -20.300781 C 2.222656 -21.089844 2.515625 -21.863281 2.863281 -22.625 C 3.023438 -22.988281 3.199219 -23.355469 3.390625 -23.691406 C 3.507812 -23.894531 3.625 -24.113281 3.769531 -24.335938 C 3.859375 -24.21875 3.960938 -24.101562 4.035156 -23.984375 C 4.253906 -23.675781 4.414062 -23.324219 4.605469 -23.003906 C 4.707031 -22.8125 4.792969 -22.625 4.867188 -22.433594 C 4.558594 -20.546875 4.269531 -18.648438 3.742188 -16.808594 Z M 3.742188 -16.808594 "/></g></g></g><g fill="rgb(0%, 0%, 0%)" fill-opacity="1"><g transform="translate(315.289038, 399.973193)"><g><path d="M 13.429688 -20.738281 C 12.523438 -17.214844 11.238281 -14.117188 9.0625 -11.472656 C 9.105469 -12.640625 9.132812 -13.796875 9.179688 -14.964844 C 9.28125 -18.648438 9.558594 -21.820312 9.441406 -25.503906 C 9.410156 -26.4375 6.925781 -26.921875 6.839844 -25.984375 C 6.636719 -23.691406 6.519531 -21.367188 6.460938 -19.042969 C 6.253906 -18.109375 6.019531 -17.1875 5.714844 -16.296875 C 5.347656 -15.257812 4.941406 -14.207031 4.371094 -13.257812 C 3.929688 -12.511719 3.011719 -11.164062 2.835938 -11.222656 C 1.898438 -11.839844 1.855469 -13.402344 1.796875 -14.382812 C 1.738281 -15.683594 1.710938 -16.984375 1.710938 -18.296875 C 1.695312 -19.6875 1.945312 -23.734375 1.972656 -25.125 C 2.03125 -26.730469 -0.308594 -27.257812 -0.570312 -26.074219 C -0.832031 -24.992188 -0.933594 -22.976562 -0.980469 -21.484375 C -1.039062 -19.628906 -1.039062 -17.773438 -0.980469 -15.914062 C -0.90625 -13.3125 -0.730469 -9.953125 2.558594 -9.617188 C 3.886719 -9.308594 5.394531 -11.605469 6.359375 -13.738281 C 6.328125 -12.042969 6.300781 -10.363281 6.253906 -8.679688 C 3.449219 -6.3125 0.378906 -4.035156 -1.433594 -0.761719 C -2.5 1.183594 -3.070312 3.59375 -1.988281 5.65625 C -1.066406 7.4375 0.832031 8.097656 2.746094 7.847656 C 5.304688 7.511719 7 6.078125 7.90625 3.652344 C 8.796875 1.257812 8.769531 -1.375 8.84375 -3.886719 C 8.902344 -5.90625 8.960938 -7.921875 9.015625 -9.9375 C 12.042969 -12.890625 13.386719 -16.53125 14.820312 -20.578125 C 15.007812 -21.117188 13.5625 -21.207031 13.429688 -20.738281 Z M 5.992188 -0.65625 C 5.847656 1.535156 5.464844 4.003906 3.886719 5.65625 C 2.9375 6.636719 1.886719 7.671875 0.453125 6.867188 C -0.527344 6.3125 -1.125 5.1875 -1.328125 4.105469 C -1.796875 1.609375 -0.378906 -0.863281 1.140625 -2.71875 C 2.644531 -4.515625 4.429688 -6.007812 6.210938 -7.496094 C 6.167969 -5.21875 6.136719 -2.9375 5.992188 -0.65625 Z M 5.992188 -0.65625 "/></g></g></g><g fill="rgb(0%, 0%, 0%)" fill-opacity="1"><g transform="translate(329.317263, 399.973193)"><g/></g></g><g fill="rgb(0%, 0%, 0%)" fill-opacity="1"><g transform="translate(336.667469, 399.973193)"><g><path d="M 29.40625 -37.910156 C 28.660156 -37.328125 28.074219 -37.664062 27.214844 -37.734375 C 26.921875 -37.765625 25.925781 -37.734375 25.957031 -37.210938 C 26.03125 -35.96875 28.292969 -36.027344 29.140625 -36.128906 C 30.355469 -36.289062 31.628906 -36.800781 32.371094 -37.839844 C 34.359375 -40.585938 31 -43.347656 28.542969 -43.933594 C 25.050781 -44.765625 21.734375 -43.554688 18.546875 -42.195312 C 15.054688 -40.6875 11.457031 -39.269531 7.703125 -38.570312 C 5.949219 -38.234375 3.492188 -38.070312 2.6875 -40.105469 C 2.46875 -40.660156 2.484375 -42.265625 3.476562 -42.046875 C 4.195312 -41.871094 4.398438 -40.71875 4.136719 -40.164062 C 3.917969 -39.695312 4.984375 -39.769531 5.171875 -39.871094 C 6.109375 -40.394531 6.285156 -41.375 5.566406 -42.207031 C 4.777344 -43.113281 3.40625 -43.289062 2.292969 -42.925781 C 1.214844 -42.574219 0.0429688 -41.375 0.101562 -40.164062 C 0.175781 -38.730469 1.59375 -37.808594 2.792969 -37.371094 C 6.226562 -36.085938 10.433594 -37.488281 13.753906 -38.570312 C 14.542969 -38.816406 15.332031 -39.109375 16.105469 -39.402344 C 16.136719 -31.628906 16.195312 -23.867188 16.046875 -16.089844 C 16.003906 -14.074219 15.960938 -12.070312 15.902344 -10.054688 C 15.84375 -8.199219 15.855469 -6.226562 15.039062 -4.515625 C 14.542969 -3.449219 13.226562 -1.636719 11.851562 -2.425781 C 10.769531 -3.039062 10.550781 -5.027344 11.707031 -5.699219 C 12.203125 -5.992188 12.175781 -6.445312 11.675781 -6.722656 C 11.152344 -7.03125 10.230469 -7 9.703125 -6.695312 C 7.410156 -5.347656 7.878906 -2.28125 10.171875 -1.226562 C 12.804688 -0.0273438 15.960938 -1.183594 17.421875 -3.582031 C 18.285156 -5 18.53125 -6.707031 18.621094 -8.332031 C 18.738281 -10.316406 18.75 -12.304688 18.796875 -14.292969 C 18.882812 -18.386719 18.941406 -22.492188 18.957031 -26.597656 C 18.96875 -31.160156 18.96875 -35.734375 18.824219 -40.292969 C 18.824219 -40.351562 18.808594 -40.410156 18.796875 -40.46875 C 19.027344 -40.558594 19.261719 -40.660156 19.496094 -40.761719 C 21.25 -41.507812 23.046875 -42.398438 24.949219 -42.675781 C 26.921875 -42.96875 29.304688 -42.414062 30.003906 -40.277344 C 30.28125 -39.429688 30.121094 -38.496094 29.40625 -37.910156 Z M 29.40625 -37.910156 "/></g></g></g><g fill="rgb(0%, 0%, 0%)" fill-opacity="1"><g transform="translate(360.091682, 399.973193)"><g><path d="M 12.671875 -18.648438 C 12.40625 -16.207031 11.707031 -13.765625 10.945312 -11.429688 C 10.597656 -10.363281 10.214844 -9.46875 9.601562 -8.535156 C 9.601562 -8.550781 9.601562 -8.550781 9.585938 -8.5625 C 9.46875 -8.738281 9.367188 -8.929688 9.296875 -9.121094 C 9.089844 -9.585938 9.015625 -10.113281 8.929688 -10.625 C 8.140625 -15.183594 9.222656 -20.210938 9.003906 -24.800781 C 8.945312 -25.78125 6.253906 -25.269531 6.34375 -24.347656 C 6.359375 -24.21875 6.359375 -24.101562 6.359375 -23.96875 C 6.328125 -21.351562 4.382812 -12.320312 3.464844 -11.984375 C 2.457031 -11.617188 2.089844 -13.8125 2.089844 -13.8125 C 1.828125 -14.894531 1.710938 -16.019531 1.652344 -17.128906 C 1.5625 -18.371094 1.59375 -23.457031 1.5625 -24.714844 C 1.550781 -25.78125 -0.117188 -25.355469 -0.527344 -24.84375 C -1.109375 -24.144531 -1.082031 -21.921875 -1.097656 -20.167969 C -1.125 -18.621094 -1.097656 -17.042969 -0.921875 -15.507812 C -0.65625 -13.199219 0.292969 -9.660156 3.171875 -10.597656 C 4.835938 -11.136719 5.144531 -13.796875 6.019531 -16.542969 C 5.992188 -16.078125 5.964844 -15.59375 5.949219 -15.113281 C 5.90625 -13.59375 5.949219 -12.070312 6.226562 -10.566406 C 6.414062 -9.515625 6.621094 -8.242188 7.613281 -7.628906 C 9.558594 -6.460938 10.875 -8.066406 11.457031 -9.863281 C 12.421875 -12.789062 13.3125 -15.609375 13.167969 -18.664062 C 13.167969 -18.738281 12.6875 -18.722656 12.671875 -18.648438 Z M 12.671875 -18.648438 "/></g></g></g><g fill="rgb(0%, 0%, 0%)" fill-opacity="1"><g transform="translate(372.74631, 399.973193)"><g><path d="M 11.078125 -5.90625 C 7.378906 -7.484375 10.203125 -19.65625 10.859375 -25.109375 C 10.976562 -26.101562 11.0625 -27.988281 10.582031 -29.246094 C 10.390625 -29.710938 8.945312 -30.648438 8.300781 -30.53125 C 7.234375 -30.328125 6.546875 -29.171875 6.078125 -28.121094 C 5.261719 -26.25 4.472656 -24.363281 3.859375 -22.417969 C 3.1875 -20.285156 2.734375 -18.09375 2.222656 -15.902344 C 2.207031 -16.253906 2.175781 -16.601562 2.164062 -16.953125 C 2.03125 -19.363281 2.03125 -21.617188 2.191406 -24.230469 C 2.25 -25.238281 0.335938 -24.832031 0.132812 -24.261719 C -0.292969 -23.0625 -0.703125 -19.90625 -0.6875 -17.042969 C -0.65625 -14.746094 -0.585938 -12.101562 0.570312 -10.039062 C 0.875 -9.484375 2.292969 -9.558594 2.441406 -10.214844 C 3.214844 -13.59375 4.078125 -16.996094 4.984375 -20.328125 C 5.4375 -21.953125 5.917969 -23.574219 6.578125 -25.125 C 6.882812 -25.839844 7.191406 -26.539062 7.613281 -27.214844 C 7.703125 -27.359375 7.847656 -27.609375 8.007812 -27.886719 C 8.007812 -27.828125 8.007812 -27.769531 8.023438 -27.710938 C 8.066406 -26.980469 8.066406 -26.234375 8.066406 -25.488281 C 6.066406 -12.992188 6.152344 -7.878906 7.628906 -5.699219 C 8.316406 -4.894531 9.367188 -4.574219 10.40625 -4.707031 C 11.003906 -4.777344 11.808594 -5 11.707031 -5.730469 C 11.664062 -5.992188 11.238281 -5.949219 11.078125 -5.90625 Z M 11.078125 -5.90625 "/></g></g></g><g fill="rgb(0%, 0%, 0%)" fill-opacity="1"><g transform="translate(385.313262, 399.973193)"><g><path d="M 5.933594 -18.109375 C 7.21875 -20.269531 9.382812 -27.140625 4.882812 -27.125 C 0.890625 -27.109375 -0.714844 -21.542969 -0.890625 -18.398438 C -1.007812 -16.457031 -1.007812 -14.160156 -0.175781 -12.363281 C 0.6875 -10.523438 2.527344 -9.644531 4.5 -9.792969 C 6.589844 -9.9375 8.375 -11.867188 9.558594 -14.367188 C 10.492188 -16.308594 11.339844 -18.632812 11.707031 -20.199219 C 11.839844 -20.769531 11.09375 -20.8125 10.992188 -20.210938 C 10.710938 -18.679688 9.410156 -15.753906 9.015625 -15.097656 C 8.097656 -13.59375 6.679688 -11.339844 4.792969 -11.414062 C 2.628906 -11.503906 1.957031 -13.605469 1.8125 -15.742188 C 1.929688 -15.726562 2.046875 -15.695312 2.164062 -15.695312 C 3.871094 -15.550781 5.117188 -16.734375 5.933594 -18.109375 Z M 1.78125 -16.835938 C 1.78125 -18.019531 1.898438 -19.101562 1.957031 -19.730469 C 2.367188 -23.894531 4.339844 -26.453125 5.21875 -25.941406 C 5.917969 -25.546875 5.933594 -24.171875 5.917969 -23.5 C 5.890625 -21.746094 5.347656 -19.992188 4.488281 -18.457031 C 4.035156 -17.667969 3.140625 -16.136719 1.972656 -16.71875 C 1.898438 -16.75 1.839844 -16.792969 1.78125 -16.835938 Z M 1.78125 -16.835938 "/></g></g></g><g fill="rgb(0%, 0%, 0%)" fill-opacity="1"><g transform="translate(396.41894, 399.973193)"><g><path d="M 12.949219 -18.882812 C 12.539062 -16.878906 11.925781 -14.996094 11.09375 -13.140625 C 10.886719 -12.6875 10.710938 -12.1875 10.421875 -11.765625 C 10.273438 -11.546875 10.097656 -11.328125 9.910156 -11.152344 C 9.835938 -11.222656 9.777344 -11.296875 9.71875 -11.371094 C 9.441406 -11.824219 9.308594 -12.335938 9.207031 -12.847656 C 8.507812 -16.253906 8.433594 -19.90625 8.550781 -23.398438 C 10.683594 -26.527344 12 -30.488281 12.6875 -34.097656 C 12.90625 -35.308594 13.242188 -39.316406 12.21875 -40.511719 C 11.035156 -41.902344 9.015625 -40.964844 8.285156 -39.183594 C 7.4375 -37.078125 7.058594 -34.625 6.664062 -32.402344 C 6.285156 -30.28125 6.019531 -28.148438 5.875 -26 C 5.453125 -26.203125 4.894531 -26.308594 4.53125 -26.308594 C 2.878906 -26.320312 1.914062 -25.152344 1.214844 -23.808594 C -0.425781 -20.59375 -1.257812 -16.0625 -0.335938 -12.523438 C 0.0429688 -11.078125 0.875 -9.660156 2.515625 -9.617188 C 4.429688 -9.574219 4.953125 -11.152344 5.453125 -12.6875 C 5.671875 -13.359375 5.875 -14.046875 6.066406 -14.730469 C 6.183594 -13.242188 6.445312 -11.734375 7.234375 -10.65625 C 8.285156 -9.207031 10.726562 -9.074219 11.328125 -10.960938 C 12.144531 -13.546875 12.804688 -16.195312 13.167969 -18.882812 C 13.183594 -18.957031 12.964844 -18.957031 12.949219 -18.882812 Z M 10.039062 -35.457031 C 10.246094 -36.390625 10.480469 -37.3125 10.742188 -38.234375 C 10.84375 -38.597656 10.945312 -38.976562 11.136719 -39.300781 C 11.355469 -39.664062 11.574219 -39.140625 11.574219 -39.140625 C 12.144531 -37.152344 11.984375 -35.324219 11.574219 -33.292969 C 11.136719 -31.230469 10.507812 -29.1875 9.675781 -27.242188 C 9.355469 -26.496094 8.988281 -25.796875 8.609375 -25.09375 C 8.796875 -28.585938 9.265625 -32.050781 10.039062 -35.457031 Z M 5.742188 -20.621094 C 5.625 -19.46875 5.453125 -18.328125 5.21875 -17.1875 C 4.910156 -15.710938 4.472656 -14.277344 3.945312 -12.875 C 3.726562 -12.335938 3.609375 -11.78125 3.097656 -11.28125 C 2.777344 -10.976562 2.558594 -10.960938 2.28125 -11.371094 C 2.105469 -11.617188 1.988281 -11.957031 1.914062 -12.246094 C 1.375 -14.410156 1.652344 -17.421875 2.164062 -19.804688 C 2.441406 -21.074219 2.777344 -22.347656 3.375 -23.515625 C 3.582031 -23.910156 4.136719 -24.625 4.605469 -24.773438 C 5.011719 -24.890625 5.625 -24.4375 5.757812 -23.707031 C 5.730469 -22.683594 5.730469 -21.660156 5.742188 -20.621094 Z M 5.742188 -20.621094 "/></g></g></g></svg>